# xmcd CD database file
#
# Track frame offsets:
#	150
#	15350
#	29607
#	43635
#	59925
#	76000
#	93590
#	112832
#	124365
#	139427
#
# Disc length: 2063 seconds
#
# Revision: 2
# Processed by: cddbd v1.5.2PL0 Copyright (c) Steve Scherf et al.
# Submitted via: CDex 1.81
#
DISCID=87080d0a
DTITLE=Linda Davis - Linda Davis
DYEAR=1992
DGENRE=Country
TTITLE0=There's Sonething 'Bout Loving You
TTITLE1=Years After You
TTITLE2=He Isn't My Affair Anymore
TTITLE3=Just Enough Rope
TTITLE4=Tonight She's Climbing The Walls
TTITLE5=Love Happens
TTITLE6=The Boy Back Home
TTITLE7=Do I Do It To You Too
TTITLE8=Isn't That What You Told Her
TTITLE9=L.A. To The Moon
EXTD=YEAR: 1992
EXTT0=
EXTT1=
EXTT2=
EXTT3=
EXTT4=
EXTT5=
EXTT6=
EXTT7=
EXTT8=
EXTT9=
PLAYORDER=
